<?xml version="1.0" encoding="UTF-8"?>
<svg id="Layer_1" data-name="Layer 1" xmlns="http://www.w3.org/2000/svg" viewBox="0 0 1056.39 785.38">
  <defs>
    <style>
      .cls-1 {
        fill: #fff;
      }
    </style>
  </defs>
  <g>
    <path d="m64.38,505.99c-23.68,1.59-33.84-11.52-38.33-32.9-4.28-20.37-4.22-41.2-6.12-61.82-1.93-20.86-6.16-41.37-10.11-61.83-3.52-18.22-8.39-36.21-9.6-54.78-1.48-22.68,4.48-43.26,19.09-61.16,16.78-20.55,38.6-35.03,59.52-50.65,33.06-24.69,63.4-52.45,92.44-81.75,21.78-21.97,42.97-44.56,67.21-64.01,21.66-17.38,45.69-29.59,72.95-34.27,37.17-6.39,73.08-1.64,106.33,16.92,25.33,14.14,38.26,39.76,34.43,68.35-1.39,10.35-13.56,16.76-24.73,13.37-10.84-3.3-20.71-8.79-30.87-13.61-18.26-8.67-35.97-6.49-53.46,2.31-26.45,13.31-39.73,37.18-50,63.16-9.94,25.13-15.42,51.63-21.4,77.86-5.08,22.3-9.34,44.8-14.65,67.06-8.78,36.75-18.76,73.08-37.22,106.41-18.17,32.8-44.98,56.82-77.19,75.21-19.75,11.27-40.79,19.42-62.81,24.89-4.96,1.23-10.31.86-15.49,1.23Z"/>
    <path d="m995.57,506.09c-25.43-.58-45.19-8.48-64.61-17.64-29.44-13.88-55.85-31.77-76.43-57.45-13.79-17.2-24.08-36.33-32.24-56.76-10.61-26.56-18.09-54.04-24.53-81.8-5.34-23.02-9.09-46.42-14.75-69.35-7.99-32.36-14.65-65.29-31.46-94.72-14.9-26.07-35.85-43.79-67.03-45.95-10.16-.7-19.87,2.18-28.91,7.16-7.21,3.98-14.79,7.11-22.39,10.32-19.42,8.21-31.93-4.46-29.96-25.04,2.89-30.18,20.19-49.58,47.05-61.42C670.94,4.34,693.08-.17,715.16,0c41.76.32,78.49,15.45,110.21,43.23,29.72,26.02,56.47,55.04,84.86,82.39,27.06,26.07,56.26,49.24,86.51,71.36,14.07,10.29,27.77,21.34,39.07,34.84,19.4,23.18,23.53,49.86,18.77,79.06-3.57,21.88-8.58,43.46-12.65,65.22-5.17,27.66-6.11,55.59-9.2,83.37-1.18,10.61-2.51,21.72-8.34,31.14-7.36,11.89-18.38,16.9-28.81,15.48Z"/>
    <path d="m532.24,772.46c-23.35-.86-42.95-5.43-58.92-19.89-9.91-8.98-17.93-19.39-17.97-33.54-.03-9.88-7.56-10.95-13.99-13.33-33.31-12.3-63.37-30.09-90.31-53.19-3.18-2.73-8.84-6.07-7.39-9.6,1.86-4.5,8.35-4.46,13.23-4.09,13.22,1.02,26.43,1.75,39.71,1.42,25.79-.65,47.75-9.73,66.76-27.47,14.05-13.11,27.8-26.74,44.89-36.34,13.29-7.47,25.49-7.21,38.39.83,18.46,11.52,32.81,27.86,49.7,41.19,26.9,21.22,56.89,27.8,90.33,20.54,6-1.3,12.16-2.16,18.22-3.44,2.35-.5,5.68-1.37,7.22,1.21,1.69,2.86-.54,5.35-2.44,7.51-9.57,10.86-19.73,21.08-31.24,29.95-21.62,16.65-45.16,29.38-71.73,36.06-3.82.96-4.58,2.99-4.71,6.63-1.2,33.18-18.92,45.98-47.68,52.54-8.03,1.83-16.37,2.27-22.08,3.02Z"/>
    <path d="m531.64,424.33c16.08-.25,31.92-.03,47.4,5.98,15.47,6.01,22.44,18.12,26.03,32.8,2.01,8.23,3.33,16.78,1.24,25.45-1.42,5.89-4.59,9.24-10.5,10.98-9.9,2.91-19.56,1.03-29.25-.55-3.13-.51-4.31-2.82-2.18-5.78.75-1.05,1.82-1.86,2.6-2.89,2.38-3.16,6.74-6.1,3.79-10.61-2.97-4.53-8.31-3.11-12.14-1.79-7.04,2.41-11.36,8.22-12.46,15.52-1.19,7.87-.46,15.93,6.16,21.41,3.99,3.31,9.08,2.07,13.89.38,4.57-1.6,8.52-4.8,13.69-4.94,4.91-.14,6.08,1.4,3.9,5.93-2.53,5.24-6.63,9.31-10.41,13.37-10.45,11.22-20.94,22.34-36.46,27.25-8.29,2.62-15.61.98-22.48-2.34-16.28-7.88-29.07-20.11-39.39-34.87-1.51-2.15-3.21-5.1-1.3-7.92,1.81-2.66,4.9-1.56,7.2-1.14,4.27.78,8.72,1.74,12.54,3.71,14.07,7.23,20.84-2.73,19.67-15.12-.97-10.24-8.39-19.99-16.29-22.32-2.89-.85-5.16-.65-7.2,1.11-2.36,2.03-1.51,4.56-.66,7.15,3.55,10.91,2.14,14.02-9.26,15.72-19.53,2.91-35.18-10.78-29.74-33.4,5.61-23.28,21.7-35.13,44.53-40.43,12.46-2.89,24.74-2.18,37.12-2.67Z"/>
    <path d="m378.53,303.46c28.75-8.32,61,9.21,70.21,35.78-2.64.47-5.31.72-7.85,1.43-7.99,2.24-12.11,9.22-10.33,17.21,1.55,6.98,10.04,13.3,16.83,11.25,6.56-1.98,5.11,1.24,4.11,4.73-6.81,23.86-22.33,39.5-46.33,44.78-20.48,4.51-38.85-1.99-53.81-16.86-15.2-15.09-18.19-33.98-16-54.29.1-.94.98-1.79,2.01-3.56,7.84,17.61,21.05,25.83,39.55,21.97,13.25-2.77,23.05-15.44,23.81-29.21.86-15.62-6.82-26.38-22.2-33.23Z"/>
    <path d="m719.47,367.65c-4.91,23.53-16.97,40.15-38.26,48.22-23.71,8.99-45.41,3.53-63.15-14.37-15.76-15.9-19.43-35.51-14.34-59.19,7.56,18.81,20.4,26.41,38.34,24.05,12.97-1.71,23.55-13.22,25.3-28.57,1.83-16.06-6.14-27.4-21.34-33.98,28.17-9.82,62.95,11.63,68.72,35.08-14.07,2.55-19.4,8.56-17.33,19.2,1.35,6.95,11.33,14.57,22.06,9.57Z"/>
    <path d="m440.56,304.44c-26.17-19.62-54.67-22.83-82.7-7.2-26.89,14.99-39.2,40.33-36.45,71.36,1.01,11.33,5.09,22.42,11.82,32.14,6.81,9.82,15.39,17.59,25.73,23.53,10.14,5.82,21.57,7.43,33.76,10.18-49.81,9.83-84.36-19.28-96.28-53.42-15.18-43.47,5.64-84.87,41.19-103.02,36.53-18.65,79.2-7.39,102.93,26.44Z"/>
    <path d="m615.4,304.42c24.11-33.36,67.74-45.34,104.06-25.96,39,20.8,52.93,60.05,41.16,100.48-10.41,35.72-47.36,65.7-97.37,55.37,35.31-4.92,60.74-21.4,69.73-55.82,7.8-29.86-.9-56.59-25.55-75.16-29.2-22-60.16-20.32-92.03,1.08Z"/>
  </g>
  <path class="cls-1" d="m448.89,707.61c48.46,9.59,139.31,15.28,181.96-5.34l-9.74,59.18-67.84,23.94-88.68-3.99-45.23-71.39s17.01-4.88,29.52-2.4Z"/>
</svg>